<svg width="54" height="54" viewBox="0 0 54 54" fill="none" xmlns="http://www.w3.org/2000/svg">
<rect width="53.5814" height="53.5814" rx="26.7907" fill="#DCFCE7"/>
<path d="M34.9537 23.0233H19.0467C18.4976 23.0233 18.0525 23.4684 18.0525 24.0175V26.0058C18.0525 26.5549 18.4976 27 19.0467 27H34.9537C35.5027 27 35.9478 26.5549 35.9478 26.0058V24.0175C35.9478 23.4684 35.5027 23.0233 34.9537 23.0233Z" stroke="#16A34A" stroke-width="1.98837" stroke-linecap="round" stroke-linejoin="round"/>
<path d="M27 23.0233V35.9477" stroke="#16A34A" stroke-width="1.98837" stroke-linecap="round" stroke-linejoin="round"/>
<path d="M33.9594 27V33.9593C33.9594 34.4867 33.7499 34.9924 33.377 35.3653C33.0041 35.7382 32.4984 35.9477 31.971 35.9477H22.0291C21.5018 35.9477 20.996 35.7382 20.6232 35.3653C20.2503 34.9924 20.0408 34.4867 20.0408 33.9593V27" stroke="#16A34A" stroke-width="1.98837" stroke-linecap="round" stroke-linejoin="round"/>
<path d="M22.5262 23.0233C21.8671 23.0233 21.2349 22.7614 20.7687 22.2953C20.3026 21.8292 20.0408 21.197 20.0408 20.5378C20.0408 19.8786 20.3026 19.2464 20.7687 18.7803C21.2349 18.3142 21.8671 18.0523 22.5262 18.0523C23.4853 18.0356 24.4252 18.501 25.2232 19.3877C26.0212 20.2744 26.6405 21.5413 27.0001 23.0233C27.3597 21.5413 27.9789 20.2744 28.7769 19.3877C29.575 18.501 30.5148 18.0356 31.4739 18.0523C32.1331 18.0523 32.7653 18.3142 33.2314 18.7803C33.6975 19.2464 33.9594 19.8786 33.9594 20.5378C33.9594 21.197 33.6975 21.8292 33.2314 22.2953C32.7653 22.7614 32.1331 23.0233 31.4739 23.0233" stroke="#16A34A" stroke-width="1.98837" stroke-linecap="round" stroke-linejoin="round"/>
</svg>
