<svg width="36" height="36" viewBox="0 0 36 36" fill="none" xmlns="http://www.w3.org/2000/svg">
<path d="M10.4999 28.5H7.2224C6.74925 28.5014 6.28378 28.3804 5.87115 28.1489C5.45853 27.9173 5.11276 27.5831 4.8674 27.1785C4.63176 26.7722 4.50716 26.311 4.50611 25.8413C4.50506 25.3716 4.62759 24.9099 4.8614 24.5025L10.7939 14.25" stroke="#16A34A" stroke-width="3" stroke-linecap="round" stroke-linejoin="round"/>
<path d="M16.5 28.5H28.8045C29.2754 28.4964 29.7374 28.3716 30.1461 28.1378C30.5549 27.904 30.8966 27.569 31.1385 27.165C31.3709 26.7598 31.4931 26.3008 31.4931 25.8337C31.4931 25.3666 31.3709 24.9077 31.1385 24.5025L29.2995 21.3225" stroke="#16A34A" stroke-width="3" stroke-linecap="round" stroke-linejoin="round"/>
<path d="M21 24L16.5 28.5L21 33" stroke="#16A34A" stroke-width="3" stroke-linecap="round" stroke-linejoin="round"/>
<path d="M12.4394 20.394L10.7939 14.25L4.6499 15.897" stroke="#16A34A" stroke-width="3" stroke-linecap="round" stroke-linejoin="round"/>
<path d="M14.0161 8.7165L15.6556 5.8785C15.891 5.46809 16.2285 5.12551 16.6354 4.88398C17.0422 4.64245 17.5046 4.51018 17.9776 4.5C18.447 4.49912 18.9084 4.62174 19.3154 4.85554C19.7225 5.08933 20.0609 5.42609 20.2966 5.832L26.2111 16.0965" stroke="#16A34A" stroke-width="3" stroke-linecap="round" stroke-linejoin="round"/>
<path d="M20.0669 14.4495L26.2109 16.0965L27.8564 9.9525" stroke="#16A34A" stroke-width="3" stroke-linecap="round" stroke-linejoin="round"/>
</svg>
